# xmcd
#
# Track frame offsets:
#  150
#  9207
#  20022
#  29033
#  37732
#  48287
#  59150
#  68499
#  78229
#  88119
#  100358
#  112733
#  123115
#  131927
#  142727
#
# Disc length: 1943 seconds
#
# Revision: 0
# Processed by: cddbd v1.5.1PL0 Copyright (c) Steve Scherf et al.
# Submitted via: AltoMP3_Maker 3.0
#
DISCID=bc07950f
DTITLE=Sugar Creek Trio - Rollin' On
DYEAR=1900
DGENRE=
TTITLE0=Thunder and Lightning
TTITLE1=You win again
TTITLE2=I'm a one woman man
TTITLE3=That long black train
TTITLE4=Connie Lou
TTITLE5=Wild Cat Tamer
TTITLE6=The Snake
TTITLE7=Jungle Fever
TTITLE8=The woman I need
TTITLE9=Broken Heart
TTITLE10=Long Gone Night Train
TTITLE11=Tarantula
TTITLE12=Rock around with Ollie Vee
TTITLE13=Blue Black Hair
TTITLE14=Bed Bug Boogie
EXTD=
EXTT0=
EXTT1=
EXTT2=
EXTT3=
EXTT4=
EXTT5=
EXTT6=
EXTT7=
EXTT8=
EXTT9=
EXTT10=
EXTT11=
EXTT12=
EXTT13=
EXTT14=
PLAYORDER=
